<svg fill="#ffffff" role="img" viewBox="0 0 24 24" xmlns="http://www.w3.org/2000/svg"><path d="M10.006 5.415a4.195 4.195 0 013.045-1.306c1.56 0 2.954.9 3.69 2.205a4.99 4.99 0 011.854-.36c2.782 0 5.037 2.3 5.037 5.14s-2.255 5.14-5.037 5.14a4.94 4.94 0 01-1.128-.13 3.946 3.946 0 01-3.478 2.095c-.588 0-1.146-.13-1.648-.36a4.647 4.647 0 01-4.16 2.594c-1.95 0-3.628-1.21-4.337-2.93a4.1 4.1 0 01-.655.054C1.399 17.557 0 16.112 0 14.334c0-1.178.624-2.21 1.555-2.78A4.473 4.473 0 011.26 10.2c0-2.478 1.996-4.487 4.46-4.487 1.692 0 3.163.95 3.926 2.353a4.14 4.14 0 01.36-.651z"/></svg>
