<svg viewBox="0 0 24 24" xmlns="http://www.w3.org/2000/svg">
  <path fill="#F22F46" d="M12 0C5.381 0 0 5.381 0 12s5.381 12 12 12 12-5.381 12-12S18.619 0 12 0zm0 20.756c-4.831 0-8.756-3.925-8.756-8.756S7.169 3.244 12 3.244 20.756 7.169 20.756 12 16.831 20.756 12 20.756zm3.548-12.3a2.397 2.397 0 11-4.794 0 2.397 2.397 0 014.794 0zm0 7.088a2.397 2.397 0 11-4.794 0 2.397 2.397 0 014.794 0zm-7.088 0a2.397 2.397 0 11-4.794 0 2.397 2.397 0 014.794 0zm0-7.088a2.397 2.397 0 11-4.794 0 2.397 2.397 0 014.794 0z"/>
</svg>
